<mxfile host="app.diagrams.net" modified="2024-06-26T16:20:38.612Z" agent="Mozilla/5.0 (X11; Linux x86_64) AppleWebKit/537.36 (KHTML, like Gecko) Chrome/126.0.0.0 Safari/537.36" etag="BG2BJc8exuPRG3Yicx-R" version="24.6.2" type="google" pages="3">
  <diagram name="archieture" id="4PMvYlUGPBYZrI2jN93R">
    <mxGraphModel grid="1" page="1" gridSize="10" guides="1" tooltips="1" connect="1" arrows="1" fold="1" pageScale="1" pageWidth="827" pageHeight="1169" math="0" shadow="0">
      <root>
        <mxCell id="0" />
        <mxCell id="1" parent="0" />
        <mxCell id="133JMoNgGyUkTndHahBo-1" value="" style="rounded=0;whiteSpace=wrap;html=1;" vertex="1" parent="1">
          <mxGeometry x="290" y="25" width="220" height="60" as="geometry" />
        </mxCell>
        <mxCell id="133JMoNgGyUkTndHahBo-2" value="&lt;font style=&quot;font-size: 30px;&quot;&gt;flight_id:orders&lt;/font&gt;" style="text;html=1;align=center;verticalAlign=middle;whiteSpace=wrap;rounded=0;" vertex="1" parent="1">
          <mxGeometry x="10" y="50" width="180" height="30" as="geometry" />
        </mxCell>
        <mxCell id="133JMoNgGyUkTndHahBo-3" value="&lt;font style=&quot;font-size: 30px;&quot;&gt;flight_id:wait&lt;/font&gt;" style="text;html=1;align=center;verticalAlign=middle;whiteSpace=wrap;rounded=0;" vertex="1" parent="1">
          <mxGeometry x="-10" y="85" width="180" height="30" as="geometry" />
        </mxCell>
        <mxCell id="133JMoNgGyUkTndHahBo-4" value="&lt;font style=&quot;font-size: 30px;&quot;&gt;flight_id:wait_order&lt;/font&gt;" style="text;html=1;align=center;verticalAlign=middle;whiteSpace=wrap;rounded=0;" vertex="1" parent="1">
          <mxGeometry x="-10" y="120" width="270" height="30" as="geometry" />
        </mxCell>
        <mxCell id="133JMoNgGyUkTndHahBo-6" value="" style="ellipse;whiteSpace=wrap;html=1;aspect=fixed;" vertex="1" parent="1">
          <mxGeometry x="300" y="35" width="45" height="45" as="geometry" />
        </mxCell>
        <mxCell id="133JMoNgGyUkTndHahBo-8" value="Client" style="shape=umlActor;verticalLabelPosition=bottom;verticalAlign=top;html=1;outlineConnect=0;" vertex="1" parent="1">
          <mxGeometry x="-320" y="380" width="40" height="90" as="geometry" />
        </mxCell>
        <mxCell id="133JMoNgGyUkTndHahBo-10" value="" style="image;sketch=0;aspect=fixed;html=1;points=[];align=center;fontSize=12;image=img/lib/mscae/Cache_Redis_Product.svg;" vertex="1" parent="1">
          <mxGeometry x="400" y="220" width="47.62" height="40" as="geometry" />
        </mxCell>
        <mxCell id="133JMoNgGyUkTndHahBo-12" value="&lt;font style=&quot;font-size: 30px;&quot;&gt;api server&lt;/font&gt;" style="shape=hexagon;perimeter=hexagonPerimeter2;whiteSpace=wrap;html=1;fixedSize=1;" vertex="1" parent="1">
          <mxGeometry x="70" y="430" width="120" height="80" as="geometry" />
        </mxCell>
        <mxCell id="133JMoNgGyUkTndHahBo-13" value="" style="image;aspect=fixed;html=1;points=[];align=center;fontSize=12;image=img/lib/azure2/databases/Azure_Database_PostgreSQL_Server.svg;" vertex="1" parent="1">
          <mxGeometry x="550" y="388" width="48" height="64" as="geometry" />
        </mxCell>
        <mxCell id="133JMoNgGyUkTndHahBo-14" value="" style="endArrow=classic;html=1;rounded=0;exitX=0.4;exitY=0.048;exitDx=0;exitDy=0;exitPerimeter=0;" edge="1" parent="1" source="133JMoNgGyUkTndHahBo-10">
          <mxGeometry width="50" height="50" relative="1" as="geometry">
            <mxPoint x="270" y="290" as="sourcePoint" />
            <mxPoint x="350" y="90" as="targetPoint" />
          </mxGeometry>
        </mxCell>
        <mxCell id="133JMoNgGyUkTndHahBo-16" value="GET /flights?flight_date=$" style="endArrow=classic;html=1;rounded=0;fontSize=20;" edge="1" parent="1">
          <mxGeometry x="-0.0345" y="30" width="50" height="50" relative="1" as="geometry">
            <mxPoint x="-210" y="450" as="sourcePoint" />
            <mxPoint x="80" y="450" as="targetPoint" />
            <mxPoint as="offset" />
          </mxGeometry>
        </mxCell>
        <mxCell id="133JMoNgGyUkTndHahBo-19" value="&lt;font style=&quot;font-size: 20px;&quot;&gt;POST /orders&lt;br&gt;-d {&quot;flight_id&quot;: , &quot;ticket_numbers&quot;:}&amp;nbsp;&lt;/font&gt;" style="endArrow=classic;html=1;rounded=0;entryX=0;entryY=0.5;entryDx=0;entryDy=0;" edge="1" parent="1" target="133JMoNgGyUkTndHahBo-12">
          <mxGeometry x="-0.2593" y="-30" width="50" height="50" relative="1" as="geometry">
            <mxPoint x="-200" y="470" as="sourcePoint" />
            <mxPoint x="60" y="472" as="targetPoint" />
            <mxPoint as="offset" />
          </mxGeometry>
        </mxCell>
        <mxCell id="133JMoNgGyUkTndHahBo-22" value="&lt;font style=&quot;font-size: 20px;&quot;&gt;flights service&lt;/font&gt;" style="rounded=0;whiteSpace=wrap;html=1;" vertex="1" parent="1">
          <mxGeometry x="240" y="390" width="120" height="60" as="geometry" />
        </mxCell>
        <mxCell id="133JMoNgGyUkTndHahBo-23" value="" style="endArrow=classic;html=1;rounded=0;entryX=0;entryY=0.5;entryDx=0;entryDy=0;" edge="1" parent="1" target="133JMoNgGyUkTndHahBo-22">
          <mxGeometry width="50" height="50" relative="1" as="geometry">
            <mxPoint x="180" y="450" as="sourcePoint" />
            <mxPoint x="230" y="400" as="targetPoint" />
          </mxGeometry>
        </mxCell>
        <mxCell id="133JMoNgGyUkTndHahBo-24" value="" style="endArrow=classic;html=1;rounded=0;exitX=1;exitY=0.5;exitDx=0;exitDy=0;" edge="1" parent="1" source="133JMoNgGyUkTndHahBo-22">
          <mxGeometry width="50" height="50" relative="1" as="geometry">
            <mxPoint x="490" y="450" as="sourcePoint" />
            <mxPoint x="550" y="420" as="targetPoint" />
          </mxGeometry>
        </mxCell>
        <mxCell id="133JMoNgGyUkTndHahBo-26" value="" style="endArrow=classic;html=1;rounded=0;entryX=0.46;entryY=0.952;entryDx=0;entryDy=0;entryPerimeter=0;" edge="1" parent="1" target="133JMoNgGyUkTndHahBo-10">
          <mxGeometry width="50" height="50" relative="1" as="geometry">
            <mxPoint x="360" y="410" as="sourcePoint" />
            <mxPoint x="410" y="360" as="targetPoint" />
          </mxGeometry>
        </mxCell>
        <mxCell id="133JMoNgGyUkTndHahBo-27" value="&lt;font style=&quot;font-size: 20px;&quot;&gt;GET /flights?from=&lt;/font&gt;" style="text;html=1;align=center;verticalAlign=middle;whiteSpace=wrap;rounded=0;" vertex="1" parent="1">
          <mxGeometry x="-190" y="370" width="180" height="30" as="geometry" />
        </mxCell>
        <mxCell id="133JMoNgGyUkTndHahBo-28" value="&lt;font style=&quot;font-size: 20px;&quot;&gt;GET /flights?to=&lt;/font&gt;" style="text;html=1;align=center;verticalAlign=middle;whiteSpace=wrap;rounded=0;" vertex="1" parent="1">
          <mxGeometry x="-200" y="340" width="180" height="30" as="geometry" />
        </mxCell>
        <mxCell id="133JMoNgGyUkTndHahBo-29" value="&lt;font style=&quot;font-size: 20px;&quot;&gt;order service&lt;/font&gt;" style="rounded=0;whiteSpace=wrap;html=1;" vertex="1" parent="1">
          <mxGeometry x="240" y="500" width="120" height="60" as="geometry" />
        </mxCell>
        <mxCell id="133JMoNgGyUkTndHahBo-31" value="" style="endArrow=classic;html=1;rounded=0;entryX=0;entryY=0.5;entryDx=0;entryDy=0;exitX=1;exitY=0.75;exitDx=0;exitDy=0;" edge="1" parent="1" source="133JMoNgGyUkTndHahBo-12" target="133JMoNgGyUkTndHahBo-29">
          <mxGeometry width="50" height="50" relative="1" as="geometry">
            <mxPoint x="190" y="460" as="sourcePoint" />
            <mxPoint x="250" y="430" as="targetPoint" />
          </mxGeometry>
        </mxCell>
        <mxCell id="133JMoNgGyUkTndHahBo-32" value="&lt;font style=&quot;font-size: 20px;&quot;&gt;fetch bucket&lt;/font&gt;" style="endArrow=classic;html=1;rounded=0;entryX=0.693;entryY=1.075;entryDx=0;entryDy=0;entryPerimeter=0;" edge="1" parent="1" target="133JMoNgGyUkTndHahBo-10">
          <mxGeometry x="0.3158" y="-33" width="50" height="50" relative="1" as="geometry">
            <mxPoint x="360" y="520" as="sourcePoint" />
            <mxPoint x="410" y="470" as="targetPoint" />
            <mxPoint as="offset" />
          </mxGeometry>
        </mxCell>
        <mxCell id="133JMoNgGyUkTndHahBo-35" value="&lt;font style=&quot;font-size: 30px;&quot;&gt;flights&lt;/font&gt;" style="rounded=0;whiteSpace=wrap;html=1;" vertex="1" parent="1">
          <mxGeometry x="730" y="310" width="140" height="60" as="geometry" />
        </mxCell>
        <mxCell id="133JMoNgGyUkTndHahBo-36" value="" style="endArrow=classic;html=1;rounded=0;entryX=-0.022;entryY=0.363;entryDx=0;entryDy=0;entryPerimeter=0;" edge="1" parent="1" target="133JMoNgGyUkTndHahBo-35">
          <mxGeometry width="50" height="50" relative="1" as="geometry">
            <mxPoint x="590" y="400" as="sourcePoint" />
            <mxPoint x="650" y="340" as="targetPoint" />
          </mxGeometry>
        </mxCell>
        <mxCell id="133JMoNgGyUkTndHahBo-37" value="&lt;font style=&quot;font-size: 30px;&quot;&gt;orders&lt;/font&gt;" style="rounded=0;whiteSpace=wrap;html=1;" vertex="1" parent="1">
          <mxGeometry x="710" y="420" width="140" height="60" as="geometry" />
        </mxCell>
        <mxCell id="133JMoNgGyUkTndHahBo-38" value="" style="endArrow=classic;html=1;rounded=0;exitX=0.958;exitY=0.656;exitDx=0;exitDy=0;exitPerimeter=0;entryX=0;entryY=0.5;entryDx=0;entryDy=0;" edge="1" parent="1" source="133JMoNgGyUkTndHahBo-13" target="133JMoNgGyUkTndHahBo-37">
          <mxGeometry width="50" height="50" relative="1" as="geometry">
            <mxPoint x="710" y="620" as="sourcePoint" />
            <mxPoint x="760" y="570" as="targetPoint" />
          </mxGeometry>
        </mxCell>
        <mxCell id="MLqDeazamtByIgEM3gJF-1" value="" style="ellipse;whiteSpace=wrap;html=1;aspect=fixed;" vertex="1" parent="1">
          <mxGeometry x="356.25" y="36.25" width="43.75" height="43.75" as="geometry" />
        </mxCell>
        <mxCell id="NhPHD4VWek6sCwDMEqfh-1" value="" style="sketch=0;aspect=fixed;pointerEvents=1;shadow=0;dashed=0;html=1;strokeColor=none;labelPosition=center;verticalLabelPosition=bottom;verticalAlign=top;align=center;fillColor=#00188D;shape=mxgraph.mscae.enterprise.filter" vertex="1" parent="1">
          <mxGeometry x="170" y="600" width="50" height="45" as="geometry" />
        </mxCell>
        <mxCell id="NhPHD4VWek6sCwDMEqfh-2" value="" style="endArrow=classic;html=1;rounded=0;exitX=0.125;exitY=1.033;exitDx=0;exitDy=0;exitPerimeter=0;entryX=0.5;entryY=0;entryDx=0;entryDy=0;entryPerimeter=0;" edge="1" parent="1" source="133JMoNgGyUkTndHahBo-29" target="NhPHD4VWek6sCwDMEqfh-1">
          <mxGeometry width="50" height="50" relative="1" as="geometry">
            <mxPoint x="260" y="620" as="sourcePoint" />
            <mxPoint x="310" y="570" as="targetPoint" />
          </mxGeometry>
        </mxCell>
        <mxCell id="NhPHD4VWek6sCwDMEqfh-3" value="&lt;font style=&quot;font-size: 30px;&quot;&gt;Bloomfilter&lt;/font&gt;" style="text;html=1;align=center;verticalAlign=middle;whiteSpace=wrap;rounded=0;" vertex="1" parent="1">
          <mxGeometry x="117.5" y="660" width="155" height="30" as="geometry" />
        </mxCell>
        <mxCell id="NhPHD4VWek6sCwDMEqfh-4" value="&lt;font style=&quot;font-size: 20px;&quot;&gt;check flight_id exists&lt;/font&gt;" style="text;html=1;align=center;verticalAlign=middle;whiteSpace=wrap;rounded=0;" vertex="1" parent="1">
          <mxGeometry y="560" width="212.5" height="30" as="geometry" />
        </mxCell>
        <mxCell id="JkS54H63Pe7WteF9rg6w-4" style="edgeStyle=orthogonalEdgeStyle;rounded=0;orthogonalLoop=1;jettySize=auto;html=1;exitX=1;exitY=0.51;exitDx=0;exitDy=0;exitPerimeter=0;entryX=0.5;entryY=1;entryDx=0;entryDy=0;" edge="1" parent="1" source="JkS54H63Pe7WteF9rg6w-1" target="JkS54H63Pe7WteF9rg6w-3">
          <mxGeometry relative="1" as="geometry" />
        </mxCell>
        <mxCell id="JkS54H63Pe7WteF9rg6w-1" value="" style="sketch=0;aspect=fixed;pointerEvents=1;shadow=0;dashed=0;html=1;strokeColor=none;labelPosition=center;verticalLabelPosition=bottom;verticalAlign=top;align=center;fillColor=#00188D;shape=mxgraph.azure.queue_generic" vertex="1" parent="1">
          <mxGeometry x="420" y="667.5" width="140" height="42" as="geometry" />
        </mxCell>
        <mxCell id="JkS54H63Pe7WteF9rg6w-2" value="&lt;font style=&quot;font-size: 30px;&quot;&gt;create order event&lt;/font&gt;" style="edgeStyle=orthogonalEdgeStyle;rounded=0;orthogonalLoop=1;jettySize=auto;html=1;exitX=0.75;exitY=1;exitDx=0;exitDy=0;entryX=0;entryY=0.5;entryDx=0;entryDy=0;entryPerimeter=0;" edge="1" parent="1" source="133JMoNgGyUkTndHahBo-29" target="JkS54H63Pe7WteF9rg6w-1">
          <mxGeometry x="-0.5423" y="40" relative="1" as="geometry">
            <mxPoint as="offset" />
          </mxGeometry>
        </mxCell>
        <mxCell id="JkS54H63Pe7WteF9rg6w-3" value="&lt;font style=&quot;font-size: 30px;&quot;&gt;background&lt;/font&gt;&lt;div style=&quot;font-size: 30px;&quot;&gt;&lt;font style=&quot;font-size: 30px;&quot;&gt;service&lt;/font&gt;&lt;/div&gt;" style="rounded=0;whiteSpace=wrap;html=1;" vertex="1" parent="1">
          <mxGeometry x="540" y="525" width="200" height="60" as="geometry" />
        </mxCell>
        <mxCell id="JkS54H63Pe7WteF9rg6w-5" value="&lt;font style=&quot;font-size: 20px;&quot;&gt;create order&lt;/font&gt;&lt;div style=&quot;font-size: 20px;&quot;&gt;&lt;font style=&quot;font-size: 20px;&quot;&gt;update flights remai&lt;/font&gt;n&lt;/div&gt;" style="endArrow=classic;html=1;rounded=0;exitX=0.44;exitY=-0.033;exitDx=0;exitDy=0;exitPerimeter=0;entryX=0.729;entryY=1;entryDx=0;entryDy=0;entryPerimeter=0;" edge="1" parent="1" source="JkS54H63Pe7WteF9rg6w-3" target="133JMoNgGyUkTndHahBo-13">
          <mxGeometry width="50" height="50" relative="1" as="geometry">
            <mxPoint x="630" y="540" as="sourcePoint" />
            <mxPoint x="680" y="490" as="targetPoint" />
          </mxGeometry>
        </mxCell>
        <mxCell id="JkS54H63Pe7WteF9rg6w-9" style="edgeStyle=orthogonalEdgeStyle;rounded=0;orthogonalLoop=1;jettySize=auto;html=1;exitX=1;exitY=0.51;exitDx=0;exitDy=0;exitPerimeter=0;entryX=0.5;entryY=0;entryDx=0;entryDy=0;" edge="1" parent="1" source="JkS54H63Pe7WteF9rg6w-6" target="133JMoNgGyUkTndHahBo-22">
          <mxGeometry relative="1" as="geometry" />
        </mxCell>
        <mxCell id="JkS54H63Pe7WteF9rg6w-6" value="" style="sketch=0;aspect=fixed;pointerEvents=1;shadow=0;dashed=0;html=1;strokeColor=none;labelPosition=center;verticalLabelPosition=bottom;verticalAlign=top;align=center;fillColor=#00188D;shape=mxgraph.azure.queue_generic;rotation=-180;" vertex="1" parent="1">
          <mxGeometry x="510" y="160" width="140" height="42" as="geometry" />
        </mxCell>
        <mxCell id="JkS54H63Pe7WteF9rg6w-8" value="&lt;font style=&quot;font-size: 20px;&quot;&gt;update flights events&lt;/font&gt;" style="edgeStyle=orthogonalEdgeStyle;rounded=0;orthogonalLoop=1;jettySize=auto;html=1;exitX=1;exitY=0.5;exitDx=0;exitDy=0;entryX=0;entryY=0.5;entryDx=0;entryDy=0;entryPerimeter=0;" edge="1" parent="1" source="JkS54H63Pe7WteF9rg6w-3" target="JkS54H63Pe7WteF9rg6w-6">
          <mxGeometry relative="1" as="geometry">
            <Array as="points">
              <mxPoint x="980" y="555" />
              <mxPoint x="980" y="180" />
            </Array>
          </mxGeometry>
        </mxCell>
      </root>
    </mxGraphModel>
  </diagram>
  <diagram id="NwTNe5VbPDFAK0YWyITF" name="order-control">
    <mxGraphModel grid="1" page="1" gridSize="10" guides="1" tooltips="1" connect="1" arrows="1" fold="1" pageScale="1" pageWidth="827" pageHeight="1169" math="0" shadow="0">
      <root>
        <mxCell id="0" />
        <mxCell id="1" parent="0" />
        <mxCell id="I3jPTxeKw_EfFDCQKFma-1" value="&lt;font style=&quot;font-size: 30px;&quot;&gt;total:100&lt;/font&gt;" style="text;html=1;align=center;verticalAlign=middle;whiteSpace=wrap;rounded=0;" vertex="1" parent="1">
          <mxGeometry x="80" y="152" width="140" height="30" as="geometry" />
        </mxCell>
        <mxCell id="I3jPTxeKw_EfFDCQKFma-3" value="&lt;font style=&quot;font-size: 30px;&quot;&gt;wait:20&lt;/font&gt;" style="text;html=1;align=center;verticalAlign=middle;whiteSpace=wrap;rounded=0;" vertex="1" parent="1">
          <mxGeometry x="70" y="190" width="140" height="30" as="geometry" />
        </mxCell>
        <mxCell id="I3jPTxeKw_EfFDCQKFma-4" value="" style="image;sketch=0;aspect=fixed;html=1;points=[];align=center;fontSize=12;image=img/lib/mscae/Cache_Redis_Product.svg;" vertex="1" parent="1">
          <mxGeometry x="777" y="280" width="50" height="42" as="geometry" />
        </mxCell>
        <mxCell id="I3jPTxeKw_EfFDCQKFma-5" value="&lt;font style=&quot;font-size: 30px;&quot;&gt;wait_order: 0&lt;/font&gt;" style="text;html=1;align=center;verticalAlign=middle;whiteSpace=wrap;rounded=0;" vertex="1" parent="1">
          <mxGeometry x="80" y="230" width="190" height="30" as="geometry" />
        </mxCell>
        <mxCell id="I3jPTxeKw_EfFDCQKFma-36" value="&lt;font style=&quot;font-size: 20px;&quot;&gt;update wait&lt;/font&gt;" style="edgeStyle=orthogonalEdgeStyle;rounded=0;orthogonalLoop=1;jettySize=auto;html=1;exitX=1;exitY=0.5;exitDx=0;exitDy=0;entryX=0;entryY=0.5;entryDx=0;entryDy=0;" edge="1" parent="1" source="I3jPTxeKw_EfFDCQKFma-19" target="I3jPTxeKw_EfFDCQKFma-33">
          <mxGeometry relative="1" as="geometry" />
        </mxCell>
        <mxCell id="I3jPTxeKw_EfFDCQKFma-19" value="&lt;font style=&quot;font-size: 20px;&quot;&gt;In Stock&lt;/font&gt;&lt;div&gt;&lt;font style=&quot;font-size: 20px;&quot;&gt;(total &amp;gt; 0)&lt;/font&gt;&lt;/div&gt;" style="rounded=1;whiteSpace=wrap;html=1;" vertex="1" parent="1">
          <mxGeometry x="670" y="435" width="160" height="130" as="geometry" />
        </mxCell>
        <mxCell id="I3jPTxeKw_EfFDCQKFma-27" value="update total" style="edgeStyle=orthogonalEdgeStyle;rounded=0;orthogonalLoop=1;jettySize=auto;html=1;exitX=1;exitY=0.5;exitDx=0;exitDy=0;fontSize=20;" edge="1" parent="1" source="I3jPTxeKw_EfFDCQKFma-23" target="I3jPTxeKw_EfFDCQKFma-19">
          <mxGeometry relative="1" as="geometry" />
        </mxCell>
        <mxCell id="I3jPTxeKw_EfFDCQKFma-23" value="" style="shape=ellipse;html=1;dashed=0;whiteSpace=wrap;aspect=fixed;perimeter=ellipsePerimeter;" vertex="1" parent="1">
          <mxGeometry x="384" y="470" width="60" height="60" as="geometry" />
        </mxCell>
        <mxCell id="I3jPTxeKw_EfFDCQKFma-24" value="&lt;font style=&quot;font-size: 30px;&quot;&gt;total:100&lt;/font&gt;" style="text;html=1;align=center;verticalAlign=middle;whiteSpace=wrap;rounded=0;" vertex="1" parent="1">
          <mxGeometry x="340" y="350" width="140" height="30" as="geometry" />
        </mxCell>
        <mxCell id="I3jPTxeKw_EfFDCQKFma-25" value="&lt;font style=&quot;font-size: 30px;&quot;&gt;wait:20&lt;/font&gt;" style="text;html=1;align=center;verticalAlign=middle;whiteSpace=wrap;rounded=0;" vertex="1" parent="1">
          <mxGeometry x="330" y="388" width="140" height="30" as="geometry" />
        </mxCell>
        <mxCell id="I3jPTxeKw_EfFDCQKFma-26" value="&lt;font style=&quot;font-size: 30px;&quot;&gt;wait_order: 0&lt;/font&gt;" style="text;html=1;align=center;verticalAlign=middle;whiteSpace=wrap;rounded=0;" vertex="1" parent="1">
          <mxGeometry x="340" y="428" width="190" height="30" as="geometry" />
        </mxCell>
        <mxCell id="I3jPTxeKw_EfFDCQKFma-28" value="&lt;font style=&quot;font-size: 30px;&quot;&gt;total:total-request&lt;/font&gt;&lt;div&gt;&lt;font style=&quot;font-size: 30px;&quot;&gt;request &amp;gt;0&lt;/font&gt;&lt;/div&gt;" style="text;html=1;align=center;verticalAlign=middle;whiteSpace=wrap;rounded=0;" vertex="1" parent="1">
          <mxGeometry x="620" y="350" width="250" height="80" as="geometry" />
        </mxCell>
        <mxCell id="I3jPTxeKw_EfFDCQKFma-30" value="" style="ellipse;html=1;shape=endState;fillColor=strokeColor;" vertex="1" parent="1">
          <mxGeometry x="1550" y="478" width="30" height="30" as="geometry" />
        </mxCell>
        <mxCell id="I3jPTxeKw_EfFDCQKFma-42" style="edgeStyle=orthogonalEdgeStyle;rounded=0;orthogonalLoop=1;jettySize=auto;html=1;exitX=1;exitY=0.5;exitDx=0;exitDy=0;entryX=0;entryY=0.5;entryDx=0;entryDy=0;" edge="1" parent="1" source="I3jPTxeKw_EfFDCQKFma-31" target="I3jPTxeKw_EfFDCQKFma-30">
          <mxGeometry relative="1" as="geometry" />
        </mxCell>
        <mxCell id="I3jPTxeKw_EfFDCQKFma-31" value="&lt;font style=&quot;font-size: 20px;&quot;&gt;Sold out&lt;br&gt;(total=0, wait =0)&lt;/font&gt;" style="rounded=1;whiteSpace=wrap;html=1;" vertex="1" parent="1">
          <mxGeometry x="1330" y="428" width="160" height="130" as="geometry" />
        </mxCell>
        <mxCell id="I3jPTxeKw_EfFDCQKFma-40" value="&lt;font style=&quot;font-size: 20px;&quot;&gt;update wait&lt;/font&gt;" style="edgeStyle=orthogonalEdgeStyle;rounded=0;orthogonalLoop=1;jettySize=auto;html=1;exitX=1;exitY=0.5;exitDx=0;exitDy=0;" edge="1" parent="1" source="I3jPTxeKw_EfFDCQKFma-33" target="I3jPTxeKw_EfFDCQKFma-31">
          <mxGeometry relative="1" as="geometry" />
        </mxCell>
        <mxCell id="I3jPTxeKw_EfFDCQKFma-33" value="&lt;font style=&quot;font-size: 20px;&quot;&gt;Wait list&lt;br&gt;(total = 0, wait &amp;gt; 0)&lt;/font&gt;" style="rounded=1;whiteSpace=wrap;html=1;" vertex="1" parent="1">
          <mxGeometry x="980" y="435" width="200" height="130" as="geometry" />
        </mxCell>
        <mxCell id="I3jPTxeKw_EfFDCQKFma-34" style="edgeStyle=orthogonalEdgeStyle;rounded=0;orthogonalLoop=1;jettySize=auto;html=1;exitX=1;exitY=0.75;exitDx=0;exitDy=0;entryX=0.5;entryY=1;entryDx=0;entryDy=0;" edge="1" parent="1" source="I3jPTxeKw_EfFDCQKFma-19" target="I3jPTxeKw_EfFDCQKFma-19">
          <mxGeometry relative="1" as="geometry">
            <Array as="points">
              <mxPoint x="850" y="533" />
              <mxPoint x="850" y="610" />
              <mxPoint x="750" y="610" />
            </Array>
          </mxGeometry>
        </mxCell>
        <mxCell id="I3jPTxeKw_EfFDCQKFma-35" value="update total" style="edgeLabel;html=1;align=center;verticalAlign=middle;resizable=0;points=[];fontSize=20;" connectable="0" vertex="1" parent="I3jPTxeKw_EfFDCQKFma-34">
          <mxGeometry x="0.2" y="-1" relative="1" as="geometry">
            <mxPoint x="1" as="offset" />
          </mxGeometry>
        </mxCell>
        <mxCell id="I3jPTxeKw_EfFDCQKFma-37" value="&lt;font style=&quot;font-size: 30px;&quot;&gt;wait:wait-request&lt;/font&gt;&lt;div&gt;&lt;font style=&quot;font-size: 30px;&quot;&gt;wait_order:wait_order+1&lt;/font&gt;&lt;/div&gt;&lt;div&gt;&lt;font style=&quot;font-size: 30px;&quot;&gt;request &amp;gt;0&lt;br&gt;&lt;/font&gt;&lt;/div&gt;" style="text;html=1;align=center;verticalAlign=middle;whiteSpace=wrap;rounded=0;" vertex="1" parent="1">
          <mxGeometry x="900" y="298" width="350" height="120" as="geometry" />
        </mxCell>
        <mxCell id="I3jPTxeKw_EfFDCQKFma-39" value="&lt;font style=&quot;font-size: 20px;&quot;&gt;update wait&lt;/font&gt;" style="edgeStyle=orthogonalEdgeStyle;rounded=0;orthogonalLoop=1;jettySize=auto;html=1;exitX=1;exitY=0.75;exitDx=0;exitDy=0;" edge="1" parent="1" source="I3jPTxeKw_EfFDCQKFma-33" target="I3jPTxeKw_EfFDCQKFma-33">
          <mxGeometry relative="1" as="geometry" />
        </mxCell>
        <mxCell id="I3jPTxeKw_EfFDCQKFma-43" value="&lt;font style=&quot;font-size: 30px;&quot;&gt;for specific flight_id&lt;/font&gt;" style="text;html=1;align=center;verticalAlign=middle;whiteSpace=wrap;rounded=0;" vertex="1" parent="1">
          <mxGeometry x="340" y="240" width="280" height="30" as="geometry" />
        </mxCell>
      </root>
    </mxGraphModel>
  </diagram>
  <diagram id="Ttl_xCje5y8inYmoJCf_" name="schema">
    <mxGraphModel grid="1" page="1" gridSize="10" guides="1" tooltips="1" connect="1" arrows="1" fold="1" pageScale="1" pageWidth="827" pageHeight="1169" math="0" shadow="0">
      <root>
        <mxCell id="0" />
        <mxCell id="1" parent="0" />
        <mxCell id="J6hXIThrAtKfcWcBwNrC-1" value="flights" style="swimlane;fontStyle=0;childLayout=stackLayout;horizontal=1;startSize=30;horizontalStack=0;resizeParent=1;resizeParentMax=0;resizeLast=0;collapsible=1;marginBottom=0;whiteSpace=wrap;html=1;" vertex="1" parent="1">
          <mxGeometry x="30" y="170" width="300" height="330" as="geometry" />
        </mxCell>
        <mxCell id="J6hXIThrAtKfcWcBwNrC-2" value="id: uuid [pk]" style="text;strokeColor=none;fillColor=none;align=left;verticalAlign=middle;spacingLeft=4;spacingRight=4;overflow=hidden;points=[[0,0.5],[1,0.5]];portConstraint=eastwest;rotatable=0;whiteSpace=wrap;html=1;" vertex="1" parent="J6hXIThrAtKfcWcBwNrC-1">
          <mxGeometry y="30" width="300" height="30" as="geometry" />
        </mxCell>
        <mxCell id="J6hXIThrAtKfcWcBwNrC-3" value="from: varchar(100) [not null]" style="text;strokeColor=none;fillColor=none;align=left;verticalAlign=middle;spacingLeft=4;spacingRight=4;overflow=hidden;points=[[0,0.5],[1,0.5]];portConstraint=eastwest;rotatable=0;whiteSpace=wrap;html=1;" vertex="1" parent="J6hXIThrAtKfcWcBwNrC-1">
          <mxGeometry y="60" width="300" height="30" as="geometry" />
        </mxCell>
        <mxCell id="J6hXIThrAtKfcWcBwNrC-4" value="to: varchar(100) [not null]" style="text;strokeColor=none;fillColor=none;align=left;verticalAlign=middle;spacingLeft=4;spacingRight=4;overflow=hidden;points=[[0,0.5],[1,0.5]];portConstraint=eastwest;rotatable=0;whiteSpace=wrap;html=1;" vertex="1" parent="J6hXIThrAtKfcWcBwNrC-1">
          <mxGeometry y="90" width="300" height="30" as="geometry" />
        </mxCell>
        <mxCell id="J6hXIThrAtKfcWcBwNrC-10" value="flight_date: timestamp [not null]" style="text;strokeColor=none;fillColor=none;align=left;verticalAlign=middle;spacingLeft=4;spacingRight=4;overflow=hidden;points=[[0,0.5],[1,0.5]];portConstraint=eastwest;rotatable=0;whiteSpace=wrap;html=1;" vertex="1" parent="J6hXIThrAtKfcWcBwNrC-1">
          <mxGeometry y="120" width="300" height="30" as="geometry" />
        </mxCell>
        <mxCell id="J6hXIThrAtKfcWcBwNrC-9" value="price: decimal(10,2)" style="text;strokeColor=none;fillColor=none;align=left;verticalAlign=middle;spacingLeft=4;spacingRight=4;overflow=hidden;points=[[0,0.5],[1,0.5]];portConstraint=eastwest;rotatable=0;whiteSpace=wrap;html=1;" vertex="1" parent="J6hXIThrAtKfcWcBwNrC-1">
          <mxGeometry y="150" width="300" height="30" as="geometry" />
        </mxCell>
        <mxCell id="J6hXIThrAtKfcWcBwNrC-12" value="created_at: timestamp [default: `now()`, not null]" style="text;strokeColor=none;fillColor=none;align=left;verticalAlign=middle;spacingLeft=4;spacingRight=4;overflow=hidden;points=[[0,0.5],[1,0.5]];portConstraint=eastwest;rotatable=0;whiteSpace=wrap;html=1;" vertex="1" parent="J6hXIThrAtKfcWcBwNrC-1">
          <mxGeometry y="180" width="300" height="30" as="geometry" />
        </mxCell>
        <mxCell id="VxDgt1bohWVPWs3Y6mmZ-1" value="updated_at; timestamp [default: `now()`, not null]" style="text;strokeColor=none;fillColor=none;align=left;verticalAlign=middle;spacingLeft=4;spacingRight=4;overflow=hidden;points=[[0,0.5],[1,0.5]];portConstraint=eastwest;rotatable=0;whiteSpace=wrap;html=1;" vertex="1" parent="J6hXIThrAtKfcWcBwNrC-1">
          <mxGeometry y="210" width="300" height="30" as="geometry" />
        </mxCell>
        <mxCell id="VxDgt1bohWVPWs3Y6mmZ-2" value="available_seats: integer [not null]" style="text;strokeColor=none;fillColor=none;align=left;verticalAlign=middle;spacingLeft=4;spacingRight=4;overflow=hidden;points=[[0,0.5],[1,0.5]];portConstraint=eastwest;rotatable=0;whiteSpace=wrap;html=1;" vertex="1" parent="J6hXIThrAtKfcWcBwNrC-1">
          <mxGeometry y="240" width="300" height="30" as="geometry" />
        </mxCell>
        <mxCell id="VxDgt1bohWVPWs3Y6mmZ-3" value="wait_seats: integer [not null]" style="text;strokeColor=none;fillColor=none;align=left;verticalAlign=middle;spacingLeft=4;spacingRight=4;overflow=hidden;points=[[0,0.5],[1,0.5]];portConstraint=eastwest;rotatable=0;whiteSpace=wrap;html=1;" vertex="1" parent="J6hXIThrAtKfcWcBwNrC-1">
          <mxGeometry y="270" width="300" height="30" as="geometry" />
        </mxCell>
        <mxCell id="VxDgt1bohWVPWs3Y6mmZ-4" value="wait_next_order: integer [default: -1, not null]" style="text;strokeColor=none;fillColor=none;align=left;verticalAlign=middle;spacingLeft=4;spacingRight=4;overflow=hidden;points=[[0,0.5],[1,0.5]];portConstraint=eastwest;rotatable=0;whiteSpace=wrap;html=1;" vertex="1" parent="J6hXIThrAtKfcWcBwNrC-1">
          <mxGeometry y="300" width="300" height="30" as="geometry" />
        </mxCell>
        <mxCell id="J6hXIThrAtKfcWcBwNrC-5" value="orders" style="swimlane;fontStyle=0;childLayout=stackLayout;horizontal=1;startSize=30;horizontalStack=0;resizeParent=1;resizeParentMax=0;resizeLast=0;collapsible=1;marginBottom=0;whiteSpace=wrap;html=1;" vertex="1" parent="1">
          <mxGeometry x="420" y="170" width="290" height="240" as="geometry" />
        </mxCell>
        <mxCell id="J6hXIThrAtKfcWcBwNrC-6" value="id: uuid [pk]" style="text;strokeColor=none;fillColor=none;align=left;verticalAlign=middle;spacingLeft=4;spacingRight=4;overflow=hidden;points=[[0,0.5],[1,0.5]];portConstraint=eastwest;rotatable=0;whiteSpace=wrap;html=1;" vertex="1" parent="J6hXIThrAtKfcWcBwNrC-5">
          <mxGeometry y="30" width="290" height="30" as="geometry" />
        </mxCell>
        <mxCell id="J6hXIThrAtKfcWcBwNrC-7" value="flight_id: uuid [ref: &amp;gt; flights.id, not null]" style="text;strokeColor=none;fillColor=none;align=left;verticalAlign=middle;spacingLeft=4;spacingRight=4;overflow=hidden;points=[[0,0.5],[1,0.5]];portConstraint=eastwest;rotatable=0;whiteSpace=wrap;html=1;" vertex="1" parent="J6hXIThrAtKfcWcBwNrC-5">
          <mxGeometry y="60" width="290" height="30" as="geometry" />
        </mxCell>
        <mxCell id="J6hXIThrAtKfcWcBwNrC-8" value="paid_at: timestamp [default: null]" style="text;strokeColor=none;fillColor=none;align=left;verticalAlign=middle;spacingLeft=4;spacingRight=4;overflow=hidden;points=[[0,0.5],[1,0.5]];portConstraint=eastwest;rotatable=0;whiteSpace=wrap;html=1;" vertex="1" parent="J6hXIThrAtKfcWcBwNrC-5">
          <mxGeometry y="90" width="290" height="30" as="geometry" />
        </mxCell>
        <mxCell id="J6hXIThrAtKfcWcBwNrC-14" value="canceled_at: timestamp [default: null]" style="text;strokeColor=none;fillColor=none;align=left;verticalAlign=middle;spacingLeft=4;spacingRight=4;overflow=hidden;points=[[0,0.5],[1,0.5]];portConstraint=eastwest;rotatable=0;whiteSpace=wrap;html=1;" vertex="1" parent="J6hXIThrAtKfcWcBwNrC-5">
          <mxGeometry y="120" width="290" height="30" as="geometry" />
        </mxCell>
        <mxCell id="J6hXIThrAtKfcWcBwNrC-15" value="created_at: timestamp [default: `now()`, not null]" style="text;strokeColor=none;fillColor=none;align=left;verticalAlign=middle;spacingLeft=4;spacingRight=4;overflow=hidden;points=[[0,0.5],[1,0.5]];portConstraint=eastwest;rotatable=0;whiteSpace=wrap;html=1;" vertex="1" parent="J6hXIThrAtKfcWcBwNrC-5">
          <mxGeometry y="150" width="290" height="30" as="geometry" />
        </mxCell>
        <mxCell id="J6hXIThrAtKfcWcBwNrC-16" value="waited_order: integer [default: null]" style="text;strokeColor=none;fillColor=none;align=left;verticalAlign=middle;spacingLeft=4;spacingRight=4;overflow=hidden;points=[[0,0.5],[1,0.5]];portConstraint=eastwest;rotatable=0;whiteSpace=wrap;html=1;" vertex="1" parent="J6hXIThrAtKfcWcBwNrC-5">
          <mxGeometry y="180" width="290" height="30" as="geometry" />
        </mxCell>
        <mxCell id="J6hXIThrAtKfcWcBwNrC-17" value="ticket_numbers: integer [not null]" style="text;strokeColor=none;fillColor=none;align=left;verticalAlign=middle;spacingLeft=4;spacingRight=4;overflow=hidden;points=[[0,0.5],[1,0.5]];portConstraint=eastwest;rotatable=0;whiteSpace=wrap;html=1;" vertex="1" parent="J6hXIThrAtKfcWcBwNrC-5">
          <mxGeometry y="210" width="290" height="30" as="geometry" />
        </mxCell>
        <mxCell id="J6hXIThrAtKfcWcBwNrC-13" style="edgeStyle=orthogonalEdgeStyle;rounded=0;orthogonalLoop=1;jettySize=auto;html=1;entryX=1;entryY=0.5;entryDx=0;entryDy=0;" edge="1" parent="1" source="J6hXIThrAtKfcWcBwNrC-7" target="J6hXIThrAtKfcWcBwNrC-2">
          <mxGeometry relative="1" as="geometry" />
        </mxCell>
      </root>
    </mxGraphModel>
  </diagram>
</mxfile>
